<?xml version="1.0" encoding="utf-8"?>
<!-- Generator: Adobe Illustrator 23.0.0, SVG Export Plug-In . SVG Version: 6.00 Build 0)  -->
<svg version="1.1" id="Layer_1" xmlns="http://www.w3.org/2000/svg" xmlns:xlink="http://www.w3.org/1999/xlink" x="0px" y="0px"
	 viewBox="0 0 32 32" style="enable-background:new 0 0 32 32;" xml:space="preserve">
<style type="text/css">
	.st0{fill:#ECECEC;}
	.st1{fill-rule:evenodd;clip-rule:evenodd;fill:#FFC90F;}
</style>
<title>Progress Bar</title>
<desc>Created with Sketch.</desc>
<g id="Page-1">
	<g id="Progress-Bar" transform="translate(16.000000, 16.000000) rotate(-270.000000) translate(-16.000000, -16.000000) ">
		<path class="st0" d="M12,2v28c0,1.1,0.9,2,2,2h4c1.1,0,2-0.9,2-2V2c0-1.1-0.9-2-2-2h-4C12.9,0,12,0.9,12,2z"/>
		<path class="st1" d="M14,10h4c1.1,0,2,0.9,2,2v18c0,1.1-0.9,2-2,2h-4c-1.1,0-2-0.9-2-2V12C12,10.9,12.9,10,14,10z"/>
	</g>
</g>
</svg>
